<svg width="22" height="16" viewBox="0 0 22 16" fill="none" xmlns="http://www.w3.org/2000/svg">
<path fill-rule="evenodd" clip-rule="evenodd" d="M13.8614 12.2679L13.0319 11.4384C12.4364 11.7903 11.7417 11.9923 10.9999 11.9923C8.79078 11.9923 6.99992 10.2014 6.99992 7.99226C6.99992 7.25045 7.20185 6.55581 7.55374 5.9603L6.41022 4.81678C5.44478 5.54714 4.6187 6.38027 3.99704 7.08585C3.68737 7.43732 3.43242 7.75256 3.24033 8.00081C3.66167 8.54533 4.38391 9.40916 5.31343 10.2652C6.88838 11.7158 8.89988 13.0008 10.9999 13.0008C11.9789 13.0008 12.9431 12.722 13.8614 12.2679ZM15.3393 13.7458L17.5872 15.9937L19.0014 14.5795L4.42968 0.0078125L3.01547 1.42203L4.98428 3.39083C3.97327 4.18445 3.1268 5.04821 2.49641 5.76369C1.87309 6.47115 1.3201 7.21914 0.795898 8.00081C1.1408 8.54581 1.52429 9.06646 1.93001 9.56756C2.40731 10.1571 3.09946 10.9452 3.95853 11.7364C5.64094 13.2859 8.12944 15.0008 10.9999 15.0008C12.5964 15.0008 14.0693 14.4696 15.3393 13.7458ZM9.06767 7.47422L11.518 9.92452C10.0639 10.3134 8.68655 8.89937 9.06767 7.47422ZM14.9626 8.54075C15.3117 5.99531 13.0173 3.6777 10.4514 4.02956L14.9626 8.54075ZM19.5038 10.2376C19.1148 10.6791 18.6435 11.1771 18.1021 11.6802L16.6868 10.2649C17.6085 9.41594 18.3376 8.54616 18.7596 8.00081C18.3382 7.45628 17.616 6.59246 16.6864 5.73638C15.1115 4.28586 13.1 3.00081 10.9999 3.00081C10.5301 3.00081 10.0636 3.06503 9.60392 3.18204L8.02056 1.59869C8.94451 1.23265 9.94528 1.00081 10.9999 1.00081C13.8704 1.00081 16.3589 2.71575 18.0414 4.26524C19.2354 5.36498 20.3404 6.62183 21.2045 8.00081C20.9659 8.35619 20.7298 8.71244 20.4717 9.0542C20.2465 9.35241 19.919 9.76629 19.5038 10.2376Z" fill="#111111"/>
</svg>
