<svg width="22" height="14" viewBox="0 0 22 14" fill="none" xmlns="http://www.w3.org/2000/svg">
<path fill-rule="evenodd" clip-rule="evenodd" d="M10.9995 3C8.79035 3 6.99949 4.79086 6.99949 7C6.99949 9.20914 8.79035 11 10.9995 11C13.2086 11 14.9995 9.20914 14.9995 7C14.9995 4.79086 13.2086 3 10.9995 3ZM8.99949 7C8.99949 5.89543 9.89492 5 10.9995 5C12.1041 5 12.9995 5.89543 12.9995 7C12.9995 8.10457 12.1041 9 10.9995 9C9.89492 9 8.99949 8.10457 8.99949 7Z" fill="#111111"/>
<path fill-rule="evenodd" clip-rule="evenodd" d="M21.2041 7C21.0131 7.28432 20.8262 7.57123 20.6241 7.84782C20.4956 8.02362 20.3087 8.27123 20.0694 8.56676C19.5921 9.15628 18.9 9.94437 18.0409 10.7356C16.3585 12.2851 13.87 14 10.9995 14C8.129 14 5.6405 12.2851 3.95809 10.7356C3.09902 9.94437 2.40687 9.15628 1.92957 8.56676C1.69029 8.27123 1.50342 8.02362 1.37495 7.84782C1.17288 7.5713 0.985824 7.28424 0.794922 7L1.16969 6.44195C1.40632 6.09392 1.66487 5.76017 1.92957 5.43325C2.40687 4.84372 3.09902 4.05563 3.95809 3.26443C5.6405 1.71494 8.129 0 10.9995 0C13.87 0 16.3585 1.71494 18.0409 3.26443C18.9 4.05563 19.5921 4.84372 20.0694 5.43325C20.3087 5.72877 20.4956 5.97638 20.6241 6.15218C20.8261 6.42871 21.0132 6.71573 21.2041 7ZM3.23989 7C3.66123 6.45547 4.38347 5.59165 5.31299 4.73557C6.88794 3.28506 8.89944 2 10.9995 2C13.0996 2 15.1111 3.28506 16.686 4.73557C17.6155 5.59165 18.3378 6.45547 18.7591 7C18.3378 7.54452 17.6155 8.40835 16.686 9.26443C15.1111 10.7149 13.0996 12 10.9995 12C8.89944 12 6.88794 10.7149 5.31299 9.26443C4.38347 8.40835 3.66123 7.54452 3.23989 7Z" fill="#111111"/>
</svg>
